<?xml version="1.0" encoding="UTF-8"?>
<svg xmlns="http://www.w3.org/2000/svg" id="Layer_1" data-name="Layer 1" viewBox="0 0 24 24">
  <path d="M23.391,16.207l-2.413-9.39C19.864,2.803,16.172,0,12,0,7.598,0,3.855,3.002,2.903,7.29L.692,16.359c-.197,.887,.019,1.805,.59,2.518,.572,.714,1.425,1.123,2.34,1.123h3.479c.465,2.279,2.484,4,4.899,4s4.434-1.721,4.899-4h3.599c.946,0,1.817-.432,2.389-1.185,.573-.753,.755-1.707,.504-2.608Zm-11.391,6.793c-1.858,0-3.411-1.279-3.858-3h7.716c-.447,1.721-2,3-3.858,3Zm10.091-4.79c-.381,.502-.962,.79-1.593,.79H3.623c-.61,0-1.179-.272-1.56-.748-.381-.476-.525-1.087-.396-1.666L3.877,7.517C4.729,3.68,8.07,1,12,1c3.724,0,7.02,2.502,8.012,6.075l2.413,9.39c.169,.607,.047,1.243-.334,1.745Z"/>
</svg>
